<mxfile host="app.diagrams.net" modified="2022-12-22T01:31:20.990Z" agent="5.0 (Macintosh; Intel Mac OS X 10_15_7) AppleWebKit/537.36 (KHTML, like Gecko) Chrome/108.0.0.0 Safari/537.36" etag="6jitwsabz0ETdmK9e6qn" version="20.6.2" type="github">
  <diagram id="2h0S1ali2gnocXuil85y" name="ページ1">
    <mxGraphModel dx="2903" dy="4133" grid="1" gridSize="10" guides="1" tooltips="1" connect="1" arrows="1" fold="1" page="1" pageScale="1" pageWidth="1654" pageHeight="1169" math="0" shadow="0">
      <root>
        <mxCell id="0" />
        <mxCell id="1" parent="0" />
        <mxCell id="uVW6hGFL7O6GOuCq6ybs-1" value="&lt;p style=&quot;margin:0px;margin-top:4px;text-align:center;&quot;&gt;&lt;i&gt;&amp;lt;&amp;lt;control&amp;gt;&amp;gt;&lt;/i&gt;&lt;br&gt;&lt;b&gt;集計管理｜summary-controller&lt;/b&gt;&lt;/p&gt;&lt;hr size=&quot;1&quot;&gt;&lt;p style=&quot;margin:0px;margin-left:4px;&quot;&gt;+ validations: { form: Object, newItem: Object}&lt;br&gt;+ 電柱の選択肢()｜poleOptions(): Array&lt;br&gt;&lt;/p&gt;&lt;p style=&quot;margin:0px;margin-left:4px;&quot;&gt;+ 分類の選択肢()｜largeCategoryOptions(): Array&lt;br&gt;&lt;/p&gt;&lt;p style=&quot;margin:0px;margin-left:4px;&quot;&gt;+ 小分類の選択肢()｜smallCategoryOptions(): Array&lt;br&gt;&lt;/p&gt;&lt;p style=&quot;margin:0px;margin-left:4px;&quot;&gt;+ 種名の選択肢()｜animalCategoryOptions(): Array&lt;br&gt;&lt;/p&gt;&lt;p style=&quot;margin:0px;margin-left:4px;&quot;&gt;+ 大きさの選択肢()｜animalSizeOptions(): Array&lt;br&gt;&lt;/p&gt;&lt;p style=&quot;margin:0px;margin-left:4px;&quot;&gt;+ 目撃現場の選択肢()｜findLocationOptions(): Array&lt;br&gt;&lt;/p&gt;&lt;p style=&quot;margin:0px;margin-left:4px;&quot;&gt;+ 目撃現場の選択肢()｜editAnimalCategoryOptions(): Array&lt;/p&gt;&lt;br&gt;&lt;div&gt;&lt;/div&gt;&lt;hr size=&quot;1&quot;&gt;&lt;p style=&quot;margin:0px;margin-left:4px;&quot;&gt;&lt;/p&gt;&amp;nbsp;&lt;span style=&quot;background-color: initial;&quot;&gt;+&amp;nbsp;&lt;/span&gt;位置情報の共有方法を変更する()｜&lt;span style=&quot;background-color: initial;&quot;&gt;changeTileButton()&lt;/span&gt;&lt;br&gt;&amp;nbsp;+ メッセージを表示する()｜&lt;span style=&quot;background-color: initial;&quot;&gt;messageChild(msg: String, color: String)&lt;/span&gt;&lt;span style=&quot;background-color: initial;&quot;&gt;&lt;br&gt;&lt;/span&gt;&amp;nbsp;+ 一覧表にデータを抽出表示する()｜&lt;span style=&quot;background-color: initial;&quot;&gt;tableFilter()&lt;br&gt;&lt;/span&gt;&lt;span style=&quot;background-color: initial;&quot;&gt;&amp;nbsp;+ 検索する｜searchOn()&lt;br&gt;&lt;/span&gt;&lt;p style=&quot;margin: 0px 0px 0px 4px;&quot;&gt;&lt;span style=&quot;background-color: initial;&quot;&gt;+ 全ての入力データエラーチェックを行う()｜validateFormReCheck():&amp;nbsp;&lt;/span&gt;&lt;/p&gt;&lt;p style=&quot;margin: 0px 0px 0px 4px;&quot;&gt;+ Step1の入力データエラーチェックを行いキャッシュに保存する()｜validateStep1():&lt;/p&gt;&lt;p style=&quot;margin: 0px 0px 0px 4px;&quot;&gt;+ Step2の入力データエラーチェックを行うキャッシュに保存する()｜validateStep2():&lt;/p&gt;&lt;p style=&quot;margin: 0px 0px 0px 4px;&quot;&gt;+ 画像の位置情報をマップ表示しキャッシュに保存する()｜step3MapFile():&lt;/p&gt;&lt;p style=&quot;margin: 0px 0px 0px 4px;&quot;&gt;+ 位置情報から最も近い区間IDの位置情報を取得する()｜validateStep3():&lt;/p&gt;&lt;p style=&quot;margin: 0px 0px 0px 4px;&quot;&gt;+ Step4を閉じてキャッシュに保存する()｜validateStep4()&lt;/p&gt;&lt;p style=&quot;margin: 0px 0px 0px 4px;&quot;&gt;+ 専門職または管理者の位置情報に最も近い区間IDの位置情報をマップ表示しキャッシュに保存する()｜validateManagerStep4()&lt;/p&gt;&lt;p style=&quot;margin: 0px 0px 0px 4px;&quot;&gt;+ 入力データをDB保存しキャッシュを削除する()｜formSubmit():&lt;/p&gt;&lt;p style=&quot;margin: 0px 0px 0px 4px;&quot;&gt;+ 位置情報がない場合ないことを通知する()｜showMessage():&amp;nbsp;&lt;/p&gt;" style="verticalAlign=top;align=left;overflow=fill;fontSize=12;fontFamily=Helvetica;html=1;" parent="1" vertex="1">
          <mxGeometry x="530" y="-2030.5" width="700" height="400" as="geometry" />
        </mxCell>
        <mxCell id="uVW6hGFL7O6GOuCq6ybs-2" value="&lt;p style=&quot;margin:0px;margin-top:4px;text-align:center;&quot;&gt;&lt;i&gt;&amp;lt;&amp;lt;&amp;gt;&amp;gt;&lt;/i&gt;&lt;br&gt;&lt;b&gt;ビッククエリデータストア｜bigquery&lt;/b&gt;&lt;br&gt;&lt;/p&gt;&lt;hr size=&quot;1&quot;&gt;&lt;p style=&quot;margin:0px;margin-left:4px;&quot;&gt;+ animals: Array&lt;/p&gt;&lt;hr size=&quot;1&quot;&gt;&lt;p style=&quot;margin:0px;margin-left:4px;&quot;&gt;&lt;span style=&quot;background-color: initial;&quot;&gt;+ ヤマネコ目撃情報を取得する()｜getWitness(): Array&lt;/span&gt;&lt;br&gt;&lt;/p&gt;&lt;p style=&quot;margin:0px;margin-left:4px;&quot;&gt;+ ヤマネコ目撃情報の日別時、間帯別、月別を取得する()｜getWitnessDateTime(params: Object): Array&lt;br&gt;&lt;/p&gt;&lt;p style=&quot;margin:0px;margin-left:4px;&quot;&gt;+ 小動物を削除する()｜getWitnessYearTime(params: Object): Array&lt;br&gt;&lt;/p&gt;&lt;p style=&quot;margin:0px;margin-left:4px;&quot;&gt;getWitnessCategory()&lt;br&gt;&lt;/p&gt;&lt;p style=&quot;margin:0px;margin-left:4px;&quot;&gt;getWitnessDateUserrole()&lt;br&gt;&lt;/p&gt;" style="verticalAlign=top;align=left;overflow=fill;fontSize=12;fontFamily=Helvetica;html=1;fontColor=#000000;" parent="1" vertex="1">
          <mxGeometry x="640" y="-2280" width="580" height="170" as="geometry" />
        </mxCell>
        <mxCell id="uVW6hGFL7O6GOuCq6ybs-3" value="&lt;p style=&quot;margin:0px;margin-top:4px;text-align:center;&quot;&gt;&lt;i&gt;&amp;lt;&amp;lt;boundary&amp;gt;&amp;gt;&lt;/i&gt;&lt;b&gt;&lt;br&gt;&lt;/b&gt;&lt;/p&gt;&lt;p style=&quot;margin:0px;margin-top:4px;text-align:center;&quot;&gt;&lt;b&gt;ヤマネコ目撃情報一覧｜index&lt;/b&gt;&lt;/p&gt;&lt;hr size=&quot;1&quot;&gt;&lt;div&gt;&amp;nbsp;+ dialog: Boolean&lt;/div&gt;&lt;div&gt;&amp;nbsp;+ fileList: Array&amp;nbsp;&lt;/div&gt;&lt;div&gt;&amp;nbsp;+ showUpload: Boolean&lt;/div&gt;&lt;div&gt;&amp;nbsp;+ subloader: Boolean&lt;/div&gt;&lt;div&gt;&amp;nbsp;+ total_count: Integer&lt;/div&gt;&lt;div&gt;&amp;nbsp;+ faild_pole_id_count: Integer&lt;/div&gt;&lt;div&gt;&amp;nbsp;+ last_title: String&lt;/div&gt;&lt;div&gt;&amp;nbsp;+ last_message: String&lt;/div&gt;&lt;div&gt;&amp;nbsp;+ animals: Array&lt;/div&gt;&lt;div&gt;&amp;nbsp;+ log_id: String&lt;/div&gt;&lt;hr size=&quot;1&quot;&gt;&lt;p style=&quot;margin:0px;margin-left:4px;&quot;&gt;+ DB更新後の再読込表示()｜afterUpdate(item: Object):&amp;nbsp;&lt;span style=&quot;background-color: initial;&quot;&gt;&lt;br&gt;&lt;/span&gt;&lt;/p&gt;&lt;p style=&quot;margin:0px;margin-left:4px;&quot;&gt;+ 表の行選択イベント()｜selectRow(row: Object):&amp;nbsp;&lt;br&gt;&lt;/p&gt;&lt;p style=&quot;margin:0px;margin-left:4px;&quot;&gt;&lt;/p&gt;&lt;br&gt;&amp;nbsp;+&amp;nbsp;電柱IDが存在する場合カウントする()｜poleidFaildCount(val: String): Boolean&lt;br&gt;&amp;nbsp;+ エクセルファイルをストレージにアップロードしデータを取得し確認画面を表示する()｜importExcel()&lt;br&gt;&amp;nbsp;+ 確認画面を閉じてDB更新のバッチ処理をする()｜saveBatch():&amp;nbsp;&lt;br&gt;&amp;nbsp;+ ポップアップ画面を閉じる()｜close():&amp;nbsp;&lt;br&gt;&amp;nbsp;+ 選択したファイルを保管する()｜handleAdd():&amp;nbsp;&lt;br&gt;&amp;nbsp;+ 選択したファイルを削除する()｜handleRemove():&amp;nbsp;" style="verticalAlign=top;align=left;overflow=fill;fontSize=12;fontFamily=Helvetica;html=1;" parent="1" vertex="1">
          <mxGeometry x="600" y="-1560" width="595" height="360" as="geometry" />
        </mxCell>
        <mxCell id="uVW6hGFL7O6GOuCq6ybs-4" value="&lt;p style=&quot;margin:0px;margin-top:4px;text-align:center;&quot;&gt;&lt;i&gt;&amp;lt;&amp;lt;component&amp;gt;&amp;gt;&lt;/i&gt;&lt;b&gt;&lt;br&gt;&lt;/b&gt;&lt;/p&gt;&lt;p style=&quot;margin:0px;margin-top:4px;text-align:center;&quot;&gt;&lt;b&gt;月別と日別並行表示グラフ｜witness-month-time-subplot&lt;/b&gt;&lt;/p&gt;&lt;hr size=&quot;1&quot;&gt;&lt;div&gt;&amp;nbsp;+ dialog: Boolean&lt;/div&gt;&lt;div&gt;&amp;nbsp;+ fileList: Array&amp;nbsp;&lt;/div&gt;&lt;div&gt;&amp;nbsp;+ showUpload: Boolean&lt;/div&gt;&lt;div&gt;&amp;nbsp;+ subloader: Boolean&lt;/div&gt;&lt;div&gt;&amp;nbsp;+ total_count: Integer&lt;/div&gt;&lt;div&gt;&amp;nbsp;+ faild_pole_id_count: Integer&lt;/div&gt;&lt;div&gt;&amp;nbsp;+ last_title: String&lt;/div&gt;&lt;div&gt;&amp;nbsp;+ last_message: String&lt;/div&gt;&lt;div&gt;&amp;nbsp;+ animals: Array&lt;/div&gt;&lt;div&gt;&amp;nbsp;+ log_id: String&lt;/div&gt;&lt;hr size=&quot;1&quot;&gt;&lt;p style=&quot;margin:0px;margin-left:4px;&quot;&gt;+ DB更新後の再読込表示()｜initialize(lookup: Object):&amp;nbsp;&lt;span style=&quot;background-color: initial;&quot;&gt;&lt;br&gt;&lt;/span&gt;&lt;/p&gt;&lt;p style=&quot;margin:0px;margin-left:4px;&quot;&gt;+ グラフのトレース&lt;span style=&quot;background-color: initial;&quot;&gt;を作成する()｜getTraceWitness():&amp;nbsp;&lt;/span&gt;&lt;/p&gt;&lt;p style=&quot;margin:0px;margin-left:4px;&quot;&gt;&lt;/p&gt;" style="verticalAlign=top;align=left;overflow=fill;fontSize=12;fontFamily=Helvetica;html=1;" parent="1" vertex="1">
          <mxGeometry x="1310" y="-1920" width="370" height="280.5" as="geometry" />
        </mxCell>
        <mxCell id="uVW6hGFL7O6GOuCq6ybs-5" value="&lt;p style=&quot;margin:0px;margin-top:4px;text-align:center;&quot;&gt;&lt;i&gt;&amp;lt;&amp;lt;component&amp;gt;&amp;gt;&lt;/i&gt;&lt;b&gt;&lt;br&gt;&lt;/b&gt;&lt;/p&gt;&lt;p style=&quot;margin:0px;margin-top:4px;text-align:center;&quot;&gt;&lt;b&gt;年別棒グラフ｜witness-year-bar-chart&lt;/b&gt;&lt;/p&gt;&lt;hr size=&quot;1&quot;&gt;&lt;div&gt;&amp;nbsp;+ dialog: Boolean&lt;/div&gt;&lt;div&gt;&amp;nbsp;+ fileList: Array&amp;nbsp;&lt;/div&gt;&lt;div&gt;&amp;nbsp;+ showUpload: Boolean&lt;/div&gt;&lt;div&gt;&amp;nbsp;+ subloader: Boolean&lt;/div&gt;&lt;div&gt;&amp;nbsp;+ total_count: Integer&lt;/div&gt;&lt;div&gt;&amp;nbsp;+ faild_pole_id_count: Integer&lt;/div&gt;&lt;div&gt;&amp;nbsp;+ last_title: String&lt;/div&gt;&lt;div&gt;&amp;nbsp;+ last_message: String&lt;/div&gt;&lt;div&gt;&amp;nbsp;+ animals: Array&lt;/div&gt;&lt;div&gt;&amp;nbsp;+ log_id: String&lt;/div&gt;&lt;hr size=&quot;1&quot;&gt;&lt;p style=&quot;margin:0px;margin-left:4px;&quot;&gt;+ DB更新後の再読込表示()｜initialize(lookup: Object):&amp;nbsp;&lt;span style=&quot;background-color: initial;&quot;&gt;&lt;br&gt;&lt;/span&gt;&lt;/p&gt;&lt;p style=&quot;margin:0px;margin-left:4px;&quot;&gt;+ グラフのトレース&lt;span style=&quot;background-color: initial;&quot;&gt;を作成する()｜getTraceWitness():&amp;nbsp;&lt;/span&gt;&lt;/p&gt;&lt;p style=&quot;margin:0px;margin-left:4px;&quot;&gt;&lt;/p&gt;" style="verticalAlign=top;align=left;overflow=fill;fontSize=12;fontFamily=Helvetica;html=1;" parent="1" vertex="1">
          <mxGeometry x="1680" y="-2230" width="370" height="280.5" as="geometry" />
        </mxCell>
        <mxCell id="uVW6hGFL7O6GOuCq6ybs-6" value="&lt;p style=&quot;margin:0px;margin-top:4px;text-align:center;&quot;&gt;&lt;i&gt;&amp;lt;&amp;lt;component&amp;gt;&amp;gt;&lt;/i&gt;&lt;b&gt;&lt;br&gt;&lt;/b&gt;&lt;/p&gt;&lt;p style=&quot;margin:0px;margin-top:4px;text-align:center;&quot;&gt;&lt;b&gt;円グラフ｜witness-pie-chart&lt;/b&gt;&lt;/p&gt;&lt;hr size=&quot;1&quot;&gt;&lt;div&gt;&amp;nbsp;+ dataset: Array&lt;/div&gt;&lt;div&gt;&amp;nbsp;+ data: Array&amp;nbsp;&lt;/div&gt;&lt;div&gt;&lt;span style=&quot;background-color: initial;&quot;&gt;&amp;nbsp;+ layout: Object&lt;/span&gt;&lt;br&gt;&lt;/div&gt;&lt;div&gt;&amp;nbsp;+ total: Integer&lt;/div&gt;&lt;div&gt;&amp;nbsp;+loader: Boolean&lt;/div&gt;&lt;hr size=&quot;1&quot;&gt;&lt;p style=&quot;margin:0px;margin-left:4px;&quot;&gt;+ DB更新後の再読込表示()｜initialize(lookup: Object):&amp;nbsp;&lt;span style=&quot;background-color: initial;&quot;&gt;&lt;br&gt;&lt;/span&gt;&lt;/p&gt;&lt;p style=&quot;margin:0px;margin-left:4px;&quot;&gt;&lt;br&gt;&lt;/p&gt;&lt;p style=&quot;margin:0px;margin-left:4px;&quot;&gt;&lt;/p&gt;" style="verticalAlign=top;align=left;overflow=fill;fontSize=12;fontFamily=Helvetica;html=1;" parent="1" vertex="1">
          <mxGeometry x="1330" y="-2230" width="310" height="170" as="geometry" />
        </mxCell>
        <mxCell id="uVW6hGFL7O6GOuCq6ybs-7" value="&lt;p style=&quot;margin:0px;margin-top:4px;text-align:center;&quot;&gt;&lt;i&gt;&amp;lt;&amp;lt;component&amp;gt;&amp;gt;&lt;/i&gt;&lt;b&gt;&lt;br&gt;&lt;/b&gt;&lt;/p&gt;&lt;p style=&quot;margin:0px;margin-top:4px;text-align:center;&quot;&gt;&lt;b&gt;年別表｜witness-table&lt;/b&gt;&lt;/p&gt;&lt;hr size=&quot;1&quot;&gt;&lt;div&gt;&amp;nbsp;+ dataset: Array&lt;/div&gt;&lt;div&gt;&amp;nbsp;+ data: Array&amp;nbsp;&lt;/div&gt;&lt;div&gt;&lt;span style=&quot;background-color: initial;&quot;&gt;&amp;nbsp;+ layout: Object&lt;/span&gt;&lt;br&gt;&lt;/div&gt;&lt;div&gt;&amp;nbsp;+ total: Integer&lt;/div&gt;&lt;div&gt;&amp;nbsp;+loader: Boolean&lt;/div&gt;&lt;hr size=&quot;1&quot;&gt;&lt;p style=&quot;margin:0px;margin-left:4px;&quot;&gt;+ DB更新後の再読込表示()｜initialize(lookup: Object):&amp;nbsp;&lt;span style=&quot;background-color: initial;&quot;&gt;&lt;br&gt;&lt;/span&gt;&lt;/p&gt;&lt;p style=&quot;margin:0px;margin-left:4px;&quot;&gt;&lt;br&gt;&lt;/p&gt;&lt;p style=&quot;margin:0px;margin-left:4px;&quot;&gt;&lt;/p&gt;" style="verticalAlign=top;align=left;overflow=fill;fontSize=12;fontFamily=Helvetica;html=1;" parent="1" vertex="1">
          <mxGeometry x="1344" y="-1580" width="310" height="170" as="geometry" />
        </mxCell>
        <mxCell id="uVW6hGFL7O6GOuCq6ybs-8" value="&lt;p style=&quot;margin:0px;margin-top:4px;text-align:center;&quot;&gt;&lt;i&gt;&amp;lt;&amp;lt;component&amp;gt;&amp;gt;&lt;/i&gt;&lt;b&gt;&lt;br&gt;&lt;/b&gt;&lt;/p&gt;&lt;p style=&quot;margin:0px;margin-top:4px;text-align:center;&quot;&gt;&lt;b&gt;年別表｜witness-table&lt;/b&gt;&lt;/p&gt;&lt;hr size=&quot;1&quot;&gt;&lt;div&gt;&amp;nbsp;+ dataset: Array&lt;/div&gt;&lt;div&gt;&amp;nbsp;+ data: Array&amp;nbsp;&lt;/div&gt;&lt;div&gt;&lt;span style=&quot;background-color: initial;&quot;&gt;&amp;nbsp;+ layout: Object&lt;/span&gt;&lt;br&gt;&lt;/div&gt;&lt;div&gt;&amp;nbsp;+ total: Integer&lt;/div&gt;&lt;div&gt;&amp;nbsp;+loader: Boolean&lt;/div&gt;&lt;hr size=&quot;1&quot;&gt;&lt;p style=&quot;margin:0px;margin-left:4px;&quot;&gt;+ DB更新後の再読込表示()｜initialize(lookup: Object):&amp;nbsp;&lt;span style=&quot;background-color: initial;&quot;&gt;&lt;br&gt;&lt;/span&gt;&lt;/p&gt;&lt;p style=&quot;margin:0px;margin-left:4px;&quot;&gt;&lt;br&gt;&lt;/p&gt;&lt;p style=&quot;margin:0px;margin-left:4px;&quot;&gt;&lt;/p&gt;" style="verticalAlign=top;align=left;overflow=fill;fontSize=12;fontFamily=Helvetica;html=1;" parent="1" vertex="1">
          <mxGeometry x="1710" y="-1370" width="310" height="170" as="geometry" />
        </mxCell>
        <mxCell id="uVW6hGFL7O6GOuCq6ybs-9" value="&lt;p style=&quot;margin:0px;margin-top:4px;text-align:center;&quot;&gt;&lt;i&gt;&amp;lt;&amp;lt;component&amp;gt;&amp;gt;&lt;/i&gt;&lt;b&gt;&lt;br&gt;&lt;/b&gt;&lt;/p&gt;&lt;p style=&quot;margin:0px;margin-top:4px;text-align:center;&quot;&gt;&lt;b&gt;年別表｜month-d3-barchart&lt;/b&gt;&lt;/p&gt;&lt;hr size=&quot;1&quot;&gt;&lt;div&gt;&amp;nbsp;+ dataset: Array&lt;/div&gt;&lt;div&gt;&amp;nbsp;+ data: Array&amp;nbsp;&lt;/div&gt;&lt;div&gt;&lt;span style=&quot;background-color: initial;&quot;&gt;&amp;nbsp;+ layout: Object&lt;/span&gt;&lt;br&gt;&lt;/div&gt;&lt;div&gt;&amp;nbsp;+ total: Integer&lt;/div&gt;&lt;div&gt;&amp;nbsp;+loader: Boolean&lt;/div&gt;&lt;hr size=&quot;1&quot;&gt;&lt;p style=&quot;margin:0px;margin-left:4px;&quot;&gt;+ DB更新後の再読込表示()｜initialize(lookup: Object):&amp;nbsp;&lt;span style=&quot;background-color: initial;&quot;&gt;&lt;br&gt;&lt;/span&gt;&lt;/p&gt;&lt;p style=&quot;margin:0px;margin-left:4px;&quot;&gt;&lt;br&gt;&lt;/p&gt;&lt;p style=&quot;margin:0px;margin-left:4px;&quot;&gt;&lt;/p&gt;" style="verticalAlign=top;align=left;overflow=fill;fontSize=12;fontFamily=Helvetica;html=1;" parent="1" vertex="1">
          <mxGeometry x="1710" y="-1560" width="310" height="170" as="geometry" />
        </mxCell>
        <mxCell id="byU8jJx_1tkFIuVzPfQM-1" value="" style="shape=table;startSize=0;container=1;collapsible=0;childLayout=tableLayout;" vertex="1" parent="1">
          <mxGeometry x="1290" y="-1860" width="180" height="150" as="geometry" />
        </mxCell>
        <mxCell id="byU8jJx_1tkFIuVzPfQM-2" value="" style="shape=tableRow;horizontal=0;startSize=0;swimlaneHead=0;swimlaneBody=0;top=0;left=0;bottom=0;right=0;collapsible=0;dropTarget=0;fillColor=none;points=[[0,0.5],[1,0.5]];portConstraint=eastwest;" vertex="1" parent="byU8jJx_1tkFIuVzPfQM-1">
          <mxGeometry width="180" height="30" as="geometry" />
        </mxCell>
        <mxCell id="byU8jJx_1tkFIuVzPfQM-3" value="" style="shape=partialRectangle;html=1;whiteSpace=wrap;connectable=0;overflow=hidden;fillColor=none;top=0;left=0;bottom=0;right=0;pointerEvents=1;" vertex="1" parent="byU8jJx_1tkFIuVzPfQM-2">
          <mxGeometry width="60" height="30" as="geometry">
            <mxRectangle width="60" height="30" as="alternateBounds" />
          </mxGeometry>
        </mxCell>
        <mxCell id="byU8jJx_1tkFIuVzPfQM-4" value="" style="shape=partialRectangle;html=1;whiteSpace=wrap;connectable=0;overflow=hidden;fillColor=none;top=0;left=0;bottom=0;right=0;pointerEvents=1;" vertex="1" parent="byU8jJx_1tkFIuVzPfQM-2">
          <mxGeometry x="60" width="100" height="30" as="geometry">
            <mxRectangle width="100" height="30" as="alternateBounds" />
          </mxGeometry>
        </mxCell>
        <mxCell id="byU8jJx_1tkFIuVzPfQM-5" value="" style="shape=partialRectangle;html=1;whiteSpace=wrap;connectable=0;overflow=hidden;fillColor=none;top=0;left=0;bottom=0;right=0;pointerEvents=1;" vertex="1" parent="byU8jJx_1tkFIuVzPfQM-2">
          <mxGeometry x="160" width="20" height="30" as="geometry">
            <mxRectangle width="20" height="30" as="alternateBounds" />
          </mxGeometry>
        </mxCell>
        <mxCell id="byU8jJx_1tkFIuVzPfQM-6" value="" style="shape=tableRow;horizontal=0;startSize=0;swimlaneHead=0;swimlaneBody=0;top=0;left=0;bottom=0;right=0;collapsible=0;dropTarget=0;fillColor=none;points=[[0,0.5],[1,0.5]];portConstraint=eastwest;" vertex="1" parent="byU8jJx_1tkFIuVzPfQM-1">
          <mxGeometry y="30" width="180" height="40" as="geometry" />
        </mxCell>
        <mxCell id="byU8jJx_1tkFIuVzPfQM-7" value="" style="shape=partialRectangle;html=1;whiteSpace=wrap;connectable=0;overflow=hidden;fillColor=none;top=0;left=0;bottom=0;right=0;pointerEvents=1;" vertex="1" parent="byU8jJx_1tkFIuVzPfQM-6">
          <mxGeometry width="60" height="40" as="geometry">
            <mxRectangle width="60" height="40" as="alternateBounds" />
          </mxGeometry>
        </mxCell>
        <mxCell id="byU8jJx_1tkFIuVzPfQM-8" value="" style="shape=partialRectangle;html=1;whiteSpace=wrap;connectable=0;overflow=hidden;fillColor=none;top=0;left=0;bottom=0;right=0;pointerEvents=1;" vertex="1" parent="byU8jJx_1tkFIuVzPfQM-6">
          <mxGeometry x="60" width="100" height="40" as="geometry">
            <mxRectangle width="100" height="40" as="alternateBounds" />
          </mxGeometry>
        </mxCell>
        <mxCell id="byU8jJx_1tkFIuVzPfQM-9" value="" style="shape=partialRectangle;html=1;whiteSpace=wrap;connectable=0;overflow=hidden;fillColor=none;top=0;left=0;bottom=0;right=0;pointerEvents=1;" vertex="1" parent="byU8jJx_1tkFIuVzPfQM-6">
          <mxGeometry x="160" width="20" height="40" as="geometry">
            <mxRectangle width="20" height="40" as="alternateBounds" />
          </mxGeometry>
        </mxCell>
        <mxCell id="byU8jJx_1tkFIuVzPfQM-10" value="" style="shape=tableRow;horizontal=0;startSize=0;swimlaneHead=0;swimlaneBody=0;top=0;left=0;bottom=0;right=0;collapsible=0;dropTarget=0;fillColor=none;points=[[0,0.5],[1,0.5]];portConstraint=eastwest;" vertex="1" parent="byU8jJx_1tkFIuVzPfQM-1">
          <mxGeometry y="70" width="180" height="40" as="geometry" />
        </mxCell>
        <mxCell id="byU8jJx_1tkFIuVzPfQM-11" value="" style="shape=partialRectangle;html=1;whiteSpace=wrap;connectable=0;overflow=hidden;fillColor=none;top=0;left=0;bottom=0;right=0;pointerEvents=1;" vertex="1" parent="byU8jJx_1tkFIuVzPfQM-10">
          <mxGeometry width="60" height="40" as="geometry">
            <mxRectangle width="60" height="40" as="alternateBounds" />
          </mxGeometry>
        </mxCell>
        <mxCell id="byU8jJx_1tkFIuVzPfQM-12" value="" style="shape=partialRectangle;html=1;whiteSpace=wrap;connectable=0;overflow=hidden;fillColor=none;top=0;left=0;bottom=0;right=0;pointerEvents=1;" vertex="1" parent="byU8jJx_1tkFIuVzPfQM-10">
          <mxGeometry x="60" width="100" height="40" as="geometry">
            <mxRectangle width="100" height="40" as="alternateBounds" />
          </mxGeometry>
        </mxCell>
        <mxCell id="byU8jJx_1tkFIuVzPfQM-13" value="" style="shape=partialRectangle;html=1;whiteSpace=wrap;connectable=0;overflow=hidden;fillColor=none;top=0;left=0;bottom=0;right=0;pointerEvents=1;" vertex="1" parent="byU8jJx_1tkFIuVzPfQM-10">
          <mxGeometry x="160" width="20" height="40" as="geometry">
            <mxRectangle width="20" height="40" as="alternateBounds" />
          </mxGeometry>
        </mxCell>
        <mxCell id="byU8jJx_1tkFIuVzPfQM-14" value="" style="shape=tableRow;horizontal=0;startSize=0;swimlaneHead=0;swimlaneBody=0;top=0;left=0;bottom=0;right=0;collapsible=0;dropTarget=0;fillColor=none;points=[[0,0.5],[1,0.5]];portConstraint=eastwest;" vertex="1" parent="byU8jJx_1tkFIuVzPfQM-1">
          <mxGeometry y="110" width="180" height="40" as="geometry" />
        </mxCell>
        <mxCell id="byU8jJx_1tkFIuVzPfQM-15" value="" style="shape=partialRectangle;html=1;whiteSpace=wrap;connectable=0;overflow=hidden;fillColor=none;top=0;left=0;bottom=0;right=0;pointerEvents=1;" vertex="1" parent="byU8jJx_1tkFIuVzPfQM-14">
          <mxGeometry width="60" height="40" as="geometry">
            <mxRectangle width="60" height="40" as="alternateBounds" />
          </mxGeometry>
        </mxCell>
        <mxCell id="byU8jJx_1tkFIuVzPfQM-16" value="" style="shape=partialRectangle;html=1;whiteSpace=wrap;connectable=0;overflow=hidden;fillColor=none;top=0;left=0;bottom=0;right=0;pointerEvents=1;" vertex="1" parent="byU8jJx_1tkFIuVzPfQM-14">
          <mxGeometry x="60" width="100" height="40" as="geometry">
            <mxRectangle width="100" height="40" as="alternateBounds" />
          </mxGeometry>
        </mxCell>
        <mxCell id="byU8jJx_1tkFIuVzPfQM-17" value="" style="shape=partialRectangle;html=1;whiteSpace=wrap;connectable=0;overflow=hidden;fillColor=none;top=0;left=0;bottom=0;right=0;pointerEvents=1;" vertex="1" parent="byU8jJx_1tkFIuVzPfQM-14">
          <mxGeometry x="160" width="20" height="40" as="geometry">
            <mxRectangle width="20" height="40" as="alternateBounds" />
          </mxGeometry>
        </mxCell>
      </root>
    </mxGraphModel>
  </diagram>
</mxfile>
